<svg width="48" height="48" viewBox="0 0 48 48" fill="none" xmlns="http://www.w3.org/2000/svg">
<mask id="mask0_3039_2981" style="mask-type:alpha" maskUnits="userSpaceOnUse" x="0" y="0" width="48" height="48">
<rect width="48" height="48" fill="#D9D9D9"/>
</mask>
<g mask="url(#mask0_3039_2981)">
<path d="M39.8 41.9502L26.65 28.8002C25.65 29.6669 24.484 30.3419 23.152 30.8252C21.82 31.3085 20.4027 31.5502 18.9 31.5502C15.2947 31.5502 12.2433 30.3002 9.746 27.8002C7.24867 25.3002 6 22.2835 6 18.7502C6 15.2169 7.25 12.2002 9.75 9.7002C12.25 7.2002 15.275 5.9502 18.825 5.9502C22.375 5.9502 25.3917 7.2002 27.875 9.7002C30.3583 12.2002 31.6 15.2194 31.6 18.7577C31.6 20.186 31.3667 21.5669 30.9 22.9002C30.4333 24.2335 29.7333 25.4835 28.8 26.6502L42 39.7502L39.8 41.9502ZM18.85 28.5502C21.5583 28.5502 23.8605 27.5919 25.7565 25.6752C27.6522 23.7585 28.6 21.4502 28.6 18.7502C28.6 16.0502 27.6522 13.7419 25.7565 11.8252C23.8605 9.90853 21.5583 8.9502 18.85 8.9502C16.114 8.9502 13.7883 9.90853 11.873 11.8252C9.95767 13.7419 9 16.0502 9 18.7502C9 21.4502 9.95767 23.7585 11.873 25.6752C13.7883 27.5919 16.114 28.5502 18.85 28.5502Z" fill="#1C1B1F"/>
</g>
</svg>
