<?xml version="1.0" encoding="UTF-8"?>
<svg id="_レイヤー_1" data-name="レイヤー_1" xmlns="http://www.w3.org/2000/svg" xmlns:xlink="http://www.w3.org/1999/xlink" version="1.1" viewBox="0 0 48 48">
  <!-- Generator: Adobe Illustrator 29.6.1, SVG Export Plug-In . SVG Version: 2.1.1 Build 9)  -->
  <defs>
    <style>
      .st0 {
        mask: url(#mask);
      }

      .st1 {
        fill: #1c1b1f;
      }

      .st2 {
        fill: #d9d9d9;
      }

      .st3 {
        mask: url(#mask-1);
      }
    </style>
    <mask id="mask" x="-1" y=".95" width="48" height="48" maskUnits="userSpaceOnUse">
      <g id="mask0_3008_3001">
        <rect class="st2" x="-1" y=".95" width="48" height="48"/>
      </g>
    </mask>
    <mask id="mask-1" x="11.8" y="1" width="38.4" height="48" maskUnits="userSpaceOnUse">
      <g id="mask0_3008_2987">
        <rect class="st2" x="11.8" y="1" width="38.4" height="48"/>
      </g>
    </mask>
  </defs>
  <g class="st0">
    <path class="st1" d="M11,41l-8-8,2.1-2.1,4.4,4.3V14.8l-4.4,4.3-2.1-2.1,8-8,8,8-2.1,2.1-4.4-4.3v20.4l4.4-4.3,2.1,2.1-8,8Z"/>
  </g>
  <g class="st3">
    <path class="st1" d="M29.4,41c-.45,0-.83-.19-1.14-.58-.31-.38-.46-.86-.46-1.42v-12l-9.56-15.25c-.37-.57-.43-1.17-.16-1.8.27-.63.68-.95,1.24-.95h23.36c.56,0,.97.32,1.24.95.27.63.21,1.23-.16,1.8l-9.56,15.25v12c0,.57-.15,1.04-.46,1.42-.31.38-.69.58-1.14.58h-3.2ZM31,27.2l9.6-15.2h-19.2l9.6,15.2Z"/>
  </g>
</svg>