<svg width="24" height="24" viewBox="0 0 24 24" fill="none" xmlns="http://www.w3.org/2000/svg">
<mask id="mask0_54310_2944" style="mask-type:alpha" maskUnits="userSpaceOnUse" x="0" y="0" width="24" height="24">
<path d="M0 0H24V24H0V0Z" fill="#D9D9D9"/>
</mask>
<g mask="url(#mask0_54310_2944)">
<path d="M16.115 14.211L14.665 12.761C14.815 11.978 14.59 11.244 13.99 10.561C13.39 9.878 12.615 9.611 11.665 9.761L10.215 8.311C10.499 8.178 10.786 8.078 11.078 8.011C11.37 7.944 11.682 7.911 12.015 7.911C13.265 7.911 14.328 8.348 15.203 9.223C16.078 10.098 16.515 11.161 16.515 12.411C16.515 12.744 16.482 13.057 16.415 13.348C16.349 13.64 16.249 13.928 16.115 14.211ZM19.315 17.361L17.865 15.961C18.499 15.478 19.061 14.948 19.553 14.373C20.045 13.798 20.465 13.144 20.815 12.411C19.982 10.728 18.786 9.39 17.228 8.398C15.67 7.407 13.932 6.911 12.015 6.911C11.532 6.911 11.057 6.944 10.59 7.011C10.124 7.078 9.665 7.178 9.215 7.311L7.665 5.761C8.349 5.478 9.049 5.265 9.765 5.123C10.482 4.982 11.232 4.911 12.015 4.911C14.532 4.911 16.774 5.607 18.74 6.998C20.707 8.39 22.132 10.194 23.015 12.411C22.632 13.394 22.128 14.307 21.503 15.148C20.878 15.99 20.149 16.728 19.315 17.361ZM19.815 23.511L15.615 19.361C15.032 19.544 14.445 19.682 13.853 19.773C13.261 19.865 12.649 19.911 12.015 19.911C9.499 19.911 7.257 19.215 5.29 17.823C3.324 16.432 1.899 14.628 1.015 12.411C1.365 11.528 1.807 10.707 2.34 9.948C2.874 9.19 3.482 8.511 4.165 7.911L1.415 5.111L2.815 3.711L21.215 22.111L19.815 23.511ZM5.565 9.311C5.082 9.744 4.64 10.219 4.24 10.736C3.84 11.253 3.499 11.811 3.215 12.411C4.049 14.094 5.245 15.432 6.803 16.423C8.361 17.415 10.099 17.911 12.015 17.911C12.349 17.911 12.674 17.89 12.99 17.848C13.307 17.807 13.632 17.761 13.965 17.711L13.065 16.761C12.882 16.811 12.707 16.848 12.54 16.873C12.374 16.898 12.199 16.911 12.015 16.911C10.765 16.911 9.703 16.473 8.828 15.598C7.953 14.723 7.515 13.661 7.515 12.411C7.515 12.228 7.528 12.053 7.553 11.886C7.578 11.719 7.615 11.544 7.665 11.361L5.565 9.311Z" fill="currentColor"/>
</g>
</svg> 